<svg width="50" height="50" viewBox="0 0 50 50" fill="none" xmlns="http://www.w3.org/2000/svg">
<path d="M38.0725 32.9283V31.3658V32.9283ZM44.6129 24.5641L43.0851 24.8915L43.0851 24.8915L44.6129 24.5641ZM44.636 24.6715L46.1638 24.3441L46.1638 24.344L44.636 24.6715ZM44.636 27.6113L43.1082 27.2839V27.2839L44.636 27.6113ZM38.182 19.3545V17.792V19.3545ZM36.0413 32.9283L34.5289 32.5356L34.0212 34.4908H36.0413V32.9283ZM37.3309 19.3545V17.792H35.664L35.7716 19.4553L37.3309 19.3545ZM38.0725 31.3658H37.0539V34.4908H38.0725V31.3658ZM43.0851 24.8915L43.1082 24.9989L46.1638 24.344L46.1408 24.2367L43.0851 24.8915ZM43.1082 24.9989C43.2695 25.752 43.2695 26.5308 43.1082 27.2839L46.1638 27.9387C46.4177 26.754 46.4177 25.5288 46.1638 24.3441L43.1082 24.9989ZM38.0725 34.4908C41.9762 34.4908 45.3452 31.7582 46.1638 27.9387L43.1082 27.2839C42.5972 29.6679 40.4971 31.3658 38.0725 31.3658V34.4908ZM38.182 20.917C40.5428 20.917 42.5876 22.5702 43.0851 24.8915L46.1408 24.2367C45.3356 20.4799 42.0218 17.792 38.182 17.792V20.917ZM37.0539 31.3658H36.0413V34.4908H37.0539V31.3658ZM35.7716 19.4553C36.0561 23.8534 35.6367 28.2695 34.5289 32.5356L37.5536 33.321C38.745 28.7329 39.196 23.9835 38.8901 19.2536L35.7716 19.4553ZM38.182 17.792H37.3309V20.917H38.182V17.792Z" fill="#ED9902"/>
<path d="M15.153 6.71384L14.917 5.16926L15.153 6.71384ZM27.3664 6.71384L27.6024 5.16926L27.3664 6.71384ZM26.7371 43.2676L27.0102 44.806L26.7371 43.2676ZM15.7823 43.2676L16.0554 41.7291L16.0554 41.7291L15.7823 43.2676ZM7.39354 36.0438L8.88655 35.583L7.39354 36.0438ZM5.54064 15.8465L3.9887 15.6651L5.54064 15.8465ZM37.1299 17.1394L35.5779 17.3208V17.3208L37.1299 17.1394ZM35.5097 34.8002L34.0167 34.3394L34.0167 34.3394L35.5097 34.8002ZM5.61612 15.2007L7.16805 15.3821L5.61612 15.2007ZM13.5581 6.95752L13.7941 8.5021L13.5581 6.95752ZM15.503 43.218L15.2298 44.7564H15.2299L15.503 43.218ZM35.2097 35.7721L36.7027 36.2329V36.2329L35.2097 35.7721ZM36.9562 15.6535L38.5081 15.4721V15.4721L36.9562 15.6535ZM28.5119 6.88885L28.2759 8.43343L28.5119 6.88885ZM36.0412 32.9284L34.5289 32.5357L36.0412 32.9284ZM37.3308 19.3546L35.7716 19.4555L37.3308 19.3546ZM35.4043 15.8349L35.5779 17.3208L38.6818 16.958L38.5081 15.4721L35.4043 15.8349ZM34.0167 34.3394L33.7167 35.3113L36.7027 36.2329L37.0027 35.261L34.0167 34.3394ZM7.09257 16.0279L7.16805 15.3821L4.06418 15.0193L3.9887 15.6651L7.09257 16.0279ZM16.0554 41.7291L15.7761 41.6795L15.2299 44.7564L15.5092 44.806L16.0554 41.7291ZM13.7941 8.5021L15.389 8.25841L14.917 5.16926L13.3221 5.41294L13.7941 8.5021ZM27.1304 8.25842L28.2759 8.43343L28.7479 5.34428L27.6024 5.16926L27.1304 8.25842ZM15.389 8.25841C19.2803 7.66386 23.2391 7.66386 27.1304 8.25842L27.6024 5.16926C23.3982 4.52691 19.1212 4.52691 14.917 5.16926L15.389 8.25841ZM26.464 41.7291C23.0212 42.3403 19.4982 42.3403 16.0554 41.7291L15.5092 44.806C19.3133 45.4813 23.2061 45.4813 27.0102 44.806L26.464 41.7291ZM8.88655 35.583C6.93548 29.2614 6.32439 22.6004 7.09257 16.0279L3.9887 15.6651C3.17008 22.6692 3.82127 29.7676 5.90053 36.5046L8.88655 35.583ZM7.16805 15.3821C7.58075 11.8511 10.2956 9.03662 13.7941 8.5021L13.3221 5.41294C8.42748 6.16078 4.63964 10.0957 4.06418 15.0193L7.16805 15.3821ZM5.90053 36.5046C7.22246 40.7877 10.8219 43.9739 15.2298 44.7564L15.7761 41.6795C12.5244 41.1022 9.86422 38.7507 8.88655 35.583L5.90053 36.5046ZM33.7167 35.3113C32.6876 38.6459 29.8872 41.1214 26.464 41.7291L27.0102 44.806C31.5897 43.993 35.3293 40.6829 36.7027 36.2329L33.7167 35.3113ZM38.5081 15.4721C37.9014 10.281 33.9079 6.13268 28.7479 5.34428L28.2759 8.43343C32.0398 9.00852 34.9603 12.0364 35.4043 15.8349L38.5081 15.4721ZM34.5289 32.5357C34.372 33.1401 34.2012 33.7415 34.0167 34.3394L37.0027 35.261C37.2012 34.6179 37.3848 33.9712 37.5536 33.3211L34.5289 32.5357ZM35.5779 17.3208C35.661 18.0314 35.7255 18.7432 35.7716 19.4555L38.8901 19.2538C38.8405 18.4878 38.7711 17.7223 38.6818 16.958L35.5779 17.3208ZM35.7716 19.4555C36.0561 23.8535 35.6367 28.2696 34.5289 32.5357L37.5536 33.3211C38.745 28.733 39.196 23.9836 38.8901 19.2538L35.7716 19.4555Z" fill="white"/>
<path d="M12.5 23.9584V25.5499C12.5 28.6134 13.2133 31.6349 14.5833 34.375" stroke="#ED9902" stroke-width="3.125" stroke-linecap="round"/>
</svg>
